<?xml version="1.0" encoding="iso-8859-1"?>
<!-- Generator: Adobe Illustrator 19.0.0, SVG Export Plug-In . SVG Version: 6.00 Build 0)  -->
<svg xmlns="http://www.w3.org/2000/svg" xmlns:xlink="http://www.w3.org/1999/xlink" version="1.1" id="Layer_1" x="0px" y="0px" viewBox="0 0 502 502" style="enable-background:new 0 0 502 502;" xml:space="preserve" width="512" height="512">
<g>
	<rect x="81.797" y="10" style="fill:#CCD7EB;" width="328.063" height="482"/>
	<rect x="130.828" y="66" style="fill:#4D93E8;" width="230" height="51.846"/>
	<rect x="130.828" y="173" style="fill:#4D93E8;" width="230" height="51.846"/>
	<g>
		<rect x="176.56" y="386.01" style="fill:#4D93E8;" width="69.072" height="105.99"/>
		<path style="fill:#4D93E8;" d="M361.797,306c-0.325,0-0.645,0.019-0.969,0.024V281h-230v51.846h181.835    c-5.859,9.103-9.272,19.929-9.272,31.559c0,7.633,1.467,14.922,4.131,21.605h-61.497V492h69.072v-92.541    c7.708,10.246,18.702,17.881,31.425,21.321c4.871,1.317,9.988,2.032,15.275,2.032s10.405-0.715,15.275-2.032    c24.845-6.717,43.13-29.405,43.13-56.374C420.203,332.149,394.053,306,361.797,306z"/>
	</g>
	<g>
		<path d="M130.828,127.846h230c5.522,0,10-4.477,10-10V66c0-5.523-4.478-10-10-10h-230c-5.523,0-10,4.477-10,10v51.846    C120.828,123.369,125.305,127.846,130.828,127.846z M350.828,107.846h-59.031V76h59.031V107.846z M140.828,76h52.969v13    c0,5.523,4.477,10,10,10s10-4.477,10-10V76h58v31.846H140.828V76z"/>
		<path d="M130.828,234.846h230c5.522,0,10-4.477,10-10V173c0-5.523-4.478-10-10-10h-230c-5.523,0-10,4.477-10,10v51.846    C120.828,230.369,125.305,234.846,130.828,234.846z M213.797,214.846V183h58v31.846H213.797z M350.828,214.846h-59.031V183h59.031    V214.846z M140.828,183h52.969v31.846h-52.969V183z"/>
		<path d="M201.843,403.77c-5.523,0-10,4.477-10,10v2.523c0,5.523,4.477,10,10,10s10-4.477,10-10v-2.523    C211.843,408.247,207.366,403.77,201.843,403.77z"/>
		<path d="M201.843,432.37c-5.523,0-10,4.477-10,10v24.394c0,5.523,4.477,10,10,10s10-4.477,10-10V442.37    C211.843,436.847,207.366,432.37,201.843,432.37z"/>
		<path d="M409.859,502c5.522,0,10-4.477,10-10v-91.498c6.587-10.583,10.344-23.004,10.344-36.097    c0-13.248-3.797-25.621-10.344-36.109V10c0-5.523-4.478-10-10-10H81.797c-5.523,0-10,4.477-10,10v482c0,5.523,4.477,10,10,10    H409.859z M374.463,411.126c-8.273,2.236-17.059,2.236-25.332,0c-21.043-5.689-35.74-24.901-35.74-46.721    c0-26.691,21.715-48.406,48.406-48.406s48.406,21.715,48.406,48.406C410.203,386.226,395.506,405.438,374.463,411.126z     M281.797,302c-5.523,0-10,4.477-10,10v10.846h-58V291h137.031v5.891c-17.572,2.845-32.914,12.405-43.313,25.955h-15.718V312    C291.797,306.477,287.319,302,281.797,302z M140.828,322.846V291h52.969v31.846H140.828z M325.097,422.116    c3.582,2.283,7.4,4.246,11.425,5.846V482h-11.425V422.116z M91.797,20h308.063v287.597c-8.52-5.727-18.396-9.573-29.031-10.983    V281c0-5.523-4.478-10-10-10h-230c-5.523,0-10,4.477-10,10v51.846c0,5.523,4.477,10,10,10h166.064    c-2.259,6.783-3.501,14.027-3.501,21.56c0,3.939,0.344,7.817,0.997,11.604h-48.363c-0.066,0-0.13,0.009-0.196,0.01    c-0.066-0.001-0.13-0.01-0.196-0.01h-69.072c-5.523,0-10,4.477-10,10V482H91.797V20z M186.561,482v-85.99h49.072V482H186.561z     M256.024,482v-85.99h45.141c1.188,2.273,2.501,4.473,3.931,6.594V482H256.024z M356.521,482v-49.393l-0.016-0.01    c1.76,0.137,3.525,0.214,5.292,0.214s3.531-0.077,5.292-0.214l-0.017,0.01V482H356.521z M387.072,482v-54.037    c4.538-1.804,8.818-4.065,12.787-6.73V482H387.072z"/>
		<path d="M351.797,331c-11.579,0-21,9.42-21,21c0,5.523,4.478,10,10,10s10-4.477,10-10c0-0.561,0.439-1,1-1c5.522,0,10-4.477,10-10    S357.319,331,351.797,331z"/>
		<path d="M371.797,364c-5.522,0-10,4.469-10,9.992s4.477,9.992,9.999,9.992c0,0,0.001,0.005,0.001,0.016c0,5.523,4.478,10,10,10    s10-4.477,10-10C391.797,372.972,382.825,364,371.797,364z"/>
	</g>
</g>















</svg>
