<?xml version="1.0" encoding="iso-8859-1"?>
<!-- Generator: Adobe Illustrator 19.0.0, SVG Export Plug-In . SVG Version: 6.00 Build 0)  -->
<svg version="1.1" id="Layer_1" xmlns="http://www.w3.org/2000/svg" xmlns:xlink="http://www.w3.org/1999/xlink" x="0px" y="0px"
	 viewBox="0 0 411 411" style="enable-background:new 0 0 411 411;" xml:space="preserve">
<g>
	<path style="fill:#FFFFFF;" d="M48,311.33c-15.163,0-27.5,12.337-27.5,27.5s12.337,27.5,27.5,27.5s27.5-12.337,27.5-27.5
		S63.163,311.33,48,311.33z"/>
	<path style="fill:#FFFFFF;" d="M273,311.33c-15.163,0-27.5,12.337-27.5,27.5s12.337,27.5,27.5,27.5s27.5-12.337,27.5-27.5
		S288.163,311.33,273,311.33z"/>
	<path style="fill:#FFFFFF;" d="M358,311.33c-15.163,0-27.5,12.337-27.5,27.5s12.337,27.5,27.5,27.5s27.5-12.337,27.5-27.5
		S373.163,311.33,358,311.33z"/>
	<rect x="89.5" y="224.67" style="fill:#FFFFFF;" width="50" height="100"/>
	<rect x="8" y="184.67" style="fill:#3E81C8;" width="50" height="85"/>
	<path style="fill:#F8A805;" d="M370.92,44.67H40.08C22.391,44.67,8,59.061,8,76.75v107.92h50v85H8v55h16.133l2.402-3
		c5.262-6.571,13.085-10.34,21.465-10.34c8.371,0,16.196,3.771,21.469,10.345l2.402,2.995H89.5v-100h50v100h109.633l2.402-3
		c5.262-6.571,13.085-10.34,21.465-10.34c8.371,0,16.196,3.771,21.469,10.345l2.402,2.995h37.262l2.402-3
		c5.262-6.571,13.085-10.34,21.465-10.34c8.371,0,16.196,3.771,21.469,10.345l2.402,2.995H403V76.75
		C403,59.061,388.609,44.67,370.92,44.67z"/>
	<rect x="53" y="85.33" style="fill:#3E81C8;" width="305" height="45"/>
	<rect x="175" y="222.33" style="fill:#3E81C8;" width="183" height="45"/>
	<g>
		<path d="M370.92,36.67H40.08C17.98,36.67,0,54.65,0,76.75v247.92c0,4.42,3.58,8,8,8h5.04c-0.35,2-0.54,4.06-0.54,6.16
			c0,19.57,15.92,35.5,35.5,35.5c19.57,0,35.5-15.93,35.5-35.5c0-2.1-0.2-4.16-0.55-6.16h155.09c-0.35,2-0.54,4.06-0.54,6.16
			c0,19.57,15.92,35.5,35.5,35.5c19.57,0,35.5-15.93,35.5-35.5c0-2.1-0.2-4.16-0.55-6.16h15.09c-0.35,2-0.54,4.06-0.54,6.16
			c0,19.57,15.92,35.5,35.5,35.5c19.57,0,35.5-15.93,35.5-35.5c0-2.1-0.2-4.16-0.55-6.16H403c4.42,0,8-3.58,8-8V76.75
			C411,54.65,393.02,36.67,370.92,36.67z M16,192.67h34v69H16V192.67z M48,358.33c-10.75,0-19.5-8.75-19.5-19.5
			c0-10.76,8.75-19.5,19.5-19.5s19.5,8.74,19.5,19.5C67.5,349.58,58.75,358.33,48,358.33z M131.5,316.67h-34v-84h34V316.67z
			 M273,358.33c-10.75,0-19.5-8.75-19.5-19.5c0-10.76,8.75-19.5,19.5-19.5s19.5,8.74,19.5,19.5
			C292.5,349.58,283.75,358.33,273,358.33z M358,358.33c-10.75,0-19.5-8.75-19.5-19.5c0-10.76,8.75-19.5,19.5-19.5
			s19.5,8.74,19.5,19.5C377.5,349.58,368.75,358.33,358,358.33z M395,316.67h-9.29c-6.52-8.13-16.51-13.34-27.71-13.34
			s-21.2,5.21-27.71,13.34h-29.58c-6.52-8.13-16.51-13.34-27.71-13.34s-21.2,5.21-27.71,13.34H147.5v-92c0-4.42-3.58-8-8-8h-50
			c-4.42,0-8,3.58-8,8v92h-5.79c-6.52-8.13-16.51-13.34-27.71-13.34s-21.2,5.21-27.71,13.34H16v-39h42c4.42,0,8-3.58,8-8v-77h329
			V316.67z M395,176.67H16V76.75c0-13.28,10.8-24.08,24.08-24.08h330.84c13.28,0,24.08,10.8,24.08,24.08L395,176.67L395,176.67z"/>
		<path d="M358,77.33H53c-4.42,0-8,3.58-8,8v45c0,4.41,3.58,8,8,8h305c4.42,0,8-3.59,8-8v-45C366,80.91,362.42,77.33,358,77.33z
			 M106,122.33H61v-29h45V122.33z M167,122.33h-45v-29h45V122.33z M228,122.33h-45v-29h45V122.33z M289,122.33h-45v-29h45V122.33z
			 M350,122.33h-45v-29h45V122.33z"/>
		<path d="M175,275.33h183c4.42,0,8-3.59,8-8v-45c0-4.42-3.58-8-8-8H175c-4.42,0-8,3.58-8,8v45C167,271.74,170.58,275.33,175,275.33
			z M305,230.33h45v29h-45V230.33z M244,230.33h45v29h-45V230.33z M183,230.33h45v29h-45V230.33z"/>
	</g>
</g>
<g>
</g>
<g>
</g>
<g>
</g>
<g>
</g>
<g>
</g>
<g>
</g>
<g>
</g>
<g>
</g>
<g>
</g>
<g>
</g>
<g>
</g>
<g>
</g>
<g>
</g>
<g>
</g>
<g>
</g>
</svg>
